<svg xmlns="http://www.w3.org/2000/svg" viewBox="0 0 640 480" role="img" aria-label="What you actually get: cardboard and string">
  <defs>
    <linearGradient id="grass" x1="0" y1="0" x2="0" y2="1">
      <stop offset="0%" stop-color="#c8e6c9"/>
      <stop offset="100%" stop-color="#81c784"/>
    </linearGradient>
  </defs>
  <rect width="640" height="480" fill="url(#grass)"/>
  <ellipse cx="320" cy="400" rx="220" ry="30" fill="#558b2f" opacity="0.25"/>
  <rect x="155" y="170" width="12" height="200" rx="4" fill="#8d6e63" transform="rotate(-4 161 270)"/>
  <rect x="473" y="170" width="12" height="200" rx="4" fill="#8d6e63" transform="rotate(3 479 270)"/>
  <path d="M165 190 Q320 240 475 195" fill="none" stroke="#f5f5f5" stroke-width="3"/>
  <path d="M165 220 Q320 270 475 225" fill="none" stroke="#eeeeee" stroke-width="3"/>
  <path d="M165 250 Q320 300 475 255" fill="none" stroke="#fafafa" stroke-width="3"/>
  <path d="M300 248 Q310 290 295 310 Q285 320 275 300 Q270 275 300 248" fill="#90caf9" stroke="#5c6bc0" stroke-width="2"/>
  <rect x="220" y="285" width="200" height="120" fill="#a1887f" stroke="#6d4c41" stroke-width="3" rx="4"/>
  <line x1="220" y1="325" x2="420" y2="325" stroke="#6d4c41" stroke-width="2"/>
  <line x1="320" y1="285" x2="320" y2="405" stroke="#6d4c41" stroke-width="2"/>
  <text x="320" y="355" text-anchor="middle" font-family="Inter, sans-serif" font-size="16" fill="#4e342e" font-weight="700">DRYER</text>
  <text x="320" y="378" text-anchor="middle" font-family="Inter, sans-serif" font-size="11" fill="#5d4037">(assembly required)</text>
  <ellipse cx="500" cy="370" rx="28" ry="18" fill="#ffcc80" stroke="#ef6c00" stroke-width="2"/>
  <ellipse cx="500" cy="370" rx="10" ry="18" fill="#fff3e0"/>
  <path d="M472 370 Q430 350 390 330" fill="none" stroke="#fff" stroke-width="2" stroke-dasharray="4 4"/>
  <text x="320" y="455" text-anchor="middle" font-family="Inter, sans-serif" font-size="13" fill="#33691e">Actual product: cardboard, string, spool, one sad sock</text>
</svg>