<svg xmlns="http://www.w3.org/2000/svg" viewBox="0 0 800 520" role="img" aria-label="SunLine X1 kit contents">
  <defs>
    <linearGradient id="bg" x1="0" y1="0" x2="0" y2="1">
      <stop offset="0%" stop-color="#fff8e1"/>
      <stop offset="100%" stop-color="#f1f8e9"/>
    </linearGradient>
    <linearGradient id="cardboard" x1="0" y1="0" x2="1" y2="1">
      <stop offset="0%" stop-color="#d7ccc8"/>
      <stop offset="100%" stop-color="#bcaaa4"/>
    </linearGradient>
  </defs>
  <rect width="800" height="520" fill="url(#bg)"/>
  <rect x="120" y="140" width="200" height="140" rx="4" fill="url(#cardboard)" stroke="#8d6e63" stroke-width="2" transform="rotate(-6 220 210)"/>
  <rect x="155" y="175" width="200" height="140" rx="4" fill="url(#cardboard)" stroke="#8d6e63" stroke-width="2" transform="rotate(4 255 245)"/>
  <line x1="140" y1="170" x2="300" y2="170" stroke="#8d6e63" stroke-width="1" opacity="0.5"/>
  <line x1="140" y1="200" x2="300" y2="200" stroke="#8d6e63" stroke-width="1" opacity="0.5"/>
  <ellipse cx="520" cy="280" rx="42" ry="28" fill="#fff3e0" stroke="#ffb74d" stroke-width="2"/>
  <ellipse cx="520" cy="280" rx="14" ry="28" fill="#fff8e1"/>
  <path d="M478 280 Q420 250 360 230" fill="none" stroke="#eceff1" stroke-width="3"/>
  <rect x="430" y="150" width="10" height="180" rx="3" fill="#a1887f"/>
  <rect x="600" y="155" width="10" height="175" rx="3" fill="#a1887f"/>
  <path d="M440 175 Q515 210 605 180" fill="none" stroke="#f5f5f5" stroke-width="2.5"/>
  <path d="M440 205 Q515 240 605 210" fill="none" stroke="#eeeeee" stroke-width="2.5"/>
  <rect x="480" y="360" width="120" height="90" rx="4" fill="#fff" stroke="#cfd8dc" stroke-width="2"/>
  <text x="540" y="395" text-anchor="middle" font-family="Inter, sans-serif" font-size="11" fill="#546e7a" font-weight="600">Setup Guide</text>
  <text x="540" y="415" text-anchor="middle" font-family="Inter, sans-serif" font-size="9" fill="#90a4ae">Quick assembly</text>
  <text x="400" y="490" text-anchor="middle" font-family="Inter, sans-serif" font-size="13" fill="#546e7a">Complete kit — ready to assemble in minutes</text>
</svg>