<svg xmlns="http://www.w3.org/2000/svg" viewBox="0 0 640 480" role="img" aria-label="SunLine X1 premium solar dryer">
  <defs>
    <linearGradient id="sky" x1="0" y1="0" x2="0" y2="1">
      <stop offset="0%" stop-color="#87CEEB"/>
      <stop offset="100%" stop-color="#E8F5E9"/>
    </linearGradient>
    <linearGradient id="body" x1="0" y1="0" x2="1" y2="1">
      <stop offset="0%" stop-color="#ffffff"/>
      <stop offset="100%" stop-color="#e8eef5"/>
    </linearGradient>
    <linearGradient id="panel" x1="0" y1="0" x2="1" y2="0">
      <stop offset="0%" stop-color="#1a237e"/>
      <stop offset="50%" stop-color="#283593"/>
      <stop offset="100%" stop-color="#1a237e"/>
    </linearGradient>
    <filter id="shadow" x="-20%" y="-20%" width="140%" height="140%">
      <feDropShadow dx="0" dy="12" stdDeviation="16" flood-color="#2d9f4e" flood-opacity="0.25"/>
    </filter>
  </defs>
  <rect width="640" height="480" fill="url(#sky)"/>
  <ellipse cx="520" cy="90" rx="55" ry="55" fill="#FFD54F" opacity="0.9"/>
  <g filter="url(#shadow)">
    <rect x="170" y="130" width="300" height="280" rx="28" fill="url(#body)" stroke="#cfd8dc" stroke-width="3"/>
    <rect x="190" y="95" width="260" height="55" rx="12" fill="url(#panel)"/>
    <g opacity="0.35">
      <line x1="210" y1="110" x2="430" y2="110" stroke="#fff" stroke-width="2"/>
      <line x1="210" y1="125" x2="430" y2="125" stroke="#fff" stroke-width="2"/>
      <line x1="210" y1="140" x2="430" y2="140" stroke="#fff" stroke-width="2"/>
    </g>
    <rect x="205" y="175" width="230" height="170" rx="18" fill="#e3f2fd" stroke="#90caf9" stroke-width="2"/>
    <circle cx="320" cy="260" r="52" fill="none" stroke="#43a047" stroke-width="8" opacity="0.8"/>
    <circle cx="320" cy="260" r="8" fill="#43a047"/>
    <text x="320" y="360" text-anchor="middle" font-family="Inter, sans-serif" font-size="14" fill="#5a6e5a">SunLine X1™</text>
    <rect x="250" y="365" width="140" height="28" rx="14" fill="#2d9f4e"/>
    <text x="320" y="384" text-anchor="middle" font-family="Inter, sans-serif" font-size="12" fill="#fff" font-weight="700">SOLAR ACTIVE</text>
  </g>
  <text x="320" y="455" text-anchor="middle" font-family="Inter, sans-serif" font-size="13" fill="#5a6e5a">Premium marketing render · Patent pending*</text>
</svg>